<svg xmlns="http://www.w3.org/2000/svg" width="16" height="16" viewBox="0 0 16 16"><defs><style>.a{fill:none;}.b{fill:#fff;}</style></defs><g transform="translate(-1657 -2944)"><rect class="a" width="16" height="16" transform="translate(1657 2944)"/><g transform="translate(1657.5 2944.5)"><g transform="translate(0 0)"><path class="b" d="M12.1,15H2.9A2.9,2.9,0,0,1,0,12.1V2.9A2.9,2.9,0,0,1,2.9,0h9.2A2.9,2.9,0,0,1,15,2.9v9.2A2.9,2.9,0,0,1,12.1,15ZM1.46,5.96h0V12.1A1.439,1.439,0,0,0,2.9,13.538h9.2a1.44,1.44,0,0,0,1.44-1.437V5.96H11.3A4.059,4.059,0,0,1,11.6,7.5,4.1,4.1,0,1,1,3.4,7.5,4.035,4.035,0,0,1,3.7,5.96ZM7.5,4.86a2.659,2.659,0,0,0-2.144,1.1,2.641,2.641,0,1,0,4.284,0A2.653,2.653,0,0,0,7.5,4.86Zm5.432-3.132-2.213.008.008,2.543,2.534-.008V1.727Z"/></g></g></g></svg>