<svg xmlns="http://www.w3.org/2000/svg" width="190" height="57.087" viewBox="0 0 190 57.087"><defs><style>.a{fill:#2d425b;}.b{fill:#e6e9ee;}.c{fill:#a6abba;}.d{fill:#30363e;}.e{fill:#ca2200;}.f{fill:#cacaca;}.g{fill:#0e1823;}.h{fill:#484b50;}.i{fill:#f7f8f9;}.j{fill:#e6e6e6;}.k{fill:#fff;}</style></defs><path class="a" d="M234.355,270.538l-19.961,2.7-22.637-1.725H116.52l-9.871,1.725L74.8,269.168,87.873,245.2l139.375,1.548,7.633,18.926Z" transform="translate(-58.788 -224.465)"/><path d="M234.355,270.538l-19.961,2.7-22.637-1.725H116.52l-9.871,1.725L74.8,269.168,87.873,245.2l139.375,1.548,7.633,18.926Z" transform="translate(-58.788 -224.465)"/><path d="M15.4,0A15.522,15.522,0,1,1,0,15.521,15.46,15.46,0,0,1,15.4,0Z" transform="translate(24.741 24.936)"/><path class="b" d="M14.389,0A14.5,14.5,0,1,1,0,14.5,14.447,14.447,0,0,1,14.389,0Z" transform="translate(25.751 25.953)"/><path class="c" d="M11.807,23.52A11.648,11.648,0,0,0,23.52,11.807,11.874,11.874,0,0,0,11.713,0,11.648,11.648,0,0,0,0,11.713,11.874,11.874,0,0,0,11.807,23.52Z" transform="translate(40.156 57.086) rotate(-135)"/><path d="M9.564,0A9.64,9.64,0,1,1,0,9.64,9.6,9.6,0,0,1,9.564,0Z" transform="translate(30.576 30.817)"/><path class="d" d="M6.844,0A6.9,6.9,0,1,1,0,6.9,6.871,6.871,0,0,1,6.844,0Z" transform="translate(33.295 33.558)"/><path class="c" d="M369.876,279.253l-8.16,3.67a10.817,10.817,0,0,1-1.316-4.068L369.13,277l-5.966-6.677a10.775,10.775,0,0,1,3.422-2.521l4.475,7.783,4.475-7.783a10.775,10.775,0,0,1,3.422,2.521L372.991,277l8.73,1.857a10.818,10.818,0,0,1-1.316,4.068l-8.16-3.67.921,8.933a11.368,11.368,0,0,1-2.106.221,10.989,10.989,0,0,1-2.106-.221Z" transform="translate(-330.919 -237.072)"/><path d="M15.4,0A15.522,15.522,0,1,1,0,15.521,15.46,15.46,0,0,1,15.4,0Z" transform="translate(141.348 24.936)"/><path class="b" d="M14.389,0A14.5,14.5,0,1,1,0,14.5,14.447,14.447,0,0,1,14.389,0Z" transform="translate(142.358 25.953)"/><path class="c" d="M11.807,23.52A11.648,11.648,0,0,0,23.52,11.807,11.874,11.874,0,0,0,11.713,0,11.648,11.648,0,0,0,0,11.713,11.874,11.874,0,0,0,11.807,23.52Z" transform="translate(156.76 57.087) rotate(-135)"/><path d="M9.564,0A9.64,9.64,0,1,1,0,9.64,9.6,9.6,0,0,1,9.564,0Z" transform="translate(147.183 30.817)"/><path class="d" d="M6.844,0A6.9,6.9,0,1,1,0,6.9,6.871,6.871,0,0,1,6.844,0Z" transform="translate(149.902 33.558)"/><path class="c" d="M104.076,279.253l-8.16,3.67a10.819,10.819,0,0,1-1.316-4.068L103.33,277l-5.966-6.677a10.777,10.777,0,0,1,3.422-2.521l4.475,7.783,4.475-7.783a10.777,10.777,0,0,1,3.422,2.521L107.191,277l8.73,1.857a10.82,10.82,0,0,1-1.316,4.068l-8.16-3.67.921,8.933a11.369,11.369,0,0,1-2.106.221,10.627,10.627,0,0,1-2.106-.221Z" transform="translate(51.485 -237.072)"/><path class="e" d="M460.888,237.7c-3.6,2.742-6.888,6.987-6.888,9.065,0,2.123,6.668-2.565,6.668-2.565Z" transform="translate(-451.149 -220.282)"/><path class="f" d="M465.459,288.621,462.3,288.4s.132,2.742,1.579,3.847H468.4Z" transform="translate(-462.3 -248.562)"/><path class="g" d="M232.462,244.616l-14.872.707a.648.648,0,0,1-.658-.663c.395-8.314-1.93-22.641-17.943-23.083-15.267-.442-17.636,15.433-16.934,24.5a.613.613,0,0,1-.614.663l-81.379-.575a.619.619,0,0,1-.614-.752c2.413-13.4-4.343-22.729-16.188-23.216-11.45-.486-19.127,8.8-17.285,22.553a.67.67,0,0,1-.877.707c-3.773-1.5-4.124-.575-16.276-2.7-1.755-.442-1.755-.973-2.676-2.3s-3.9-4.953-2.808-6.412,1.755-2.521,1.579-4.245c-.175-1.769-1.141-5.13.395-5.881s5.922-4.864,5.835-5.837a10.74,10.74,0,0,0-3.51-6.235c-.57-.486.132-.575.7-.133a4.927,4.927,0,0,0,3.861,1.105c2.106-.221,6.624,1.017,13.907-1.415s34.219-11.276,51.547-12.6,23.383.8,32.9,4.953,11.845,6.191,14.916,8.4c15.354.531,37.772.884,47.643,3.051s17.68,7.606,18.469,8.756l-.219,6.147c1.228.929,1.272,3.449,1.272,6.147C232.594,238.912,232.462,244.616,232.462,244.616Z" transform="translate(-42.638 -198.366)"/><path class="g" d="M90.656,219.532a3.835,3.835,0,0,0,.965-1.548,10.739,10.739,0,0,0-3.51-6.235c-.57-.486.132-.575.7-.133a4.927,4.927,0,0,0,3.861,1.106c2.106-.221,6.624,1.017,13.907-1.415s34.218-11.276,51.547-12.6,23.383.8,32.9,4.953,11.845,6.191,14.916,8.4c4.606.177,9.871.31,15.223.487l1.492,1.061c17.373.663,25.357,1.371,30.841,5.439-3.51-.4-6.8,3.184-6.8,3.184l-1.579.177a21.79,21.79,0,0,0-5.659-.84,15.1,15.1,0,0,0-9.651,2.7l-.614.088c-3.422-2.034-4.431-3.051-12.24-2.786s-67.691-2.875-84.143,2.786a4.055,4.055,0,0,1-.57.177,18.777,18.777,0,0,0-8.555-2.344,17.056,17.056,0,0,0-8.73,1.857C106.932,222.627,102.5,218.957,90.656,219.532Z" transform="translate(-83.156 -198.31)"/><path class="d" d="M172.4,284.3l74.754,1.283c-2.281,3.051-2.413,2.432-4.694,2.432s-69.665-1.061-69.665-1.061Z" transform="translate(-113.878 -246.276)"/><path class="d" d="M66.476,270.9a.67.67,0,0,1-.877.708c-3.773-1.5-4.124-.575-16.276-2.7-1.755-.442-1.755-.973-2.676-2.3s-3.9-4.953-2.808-6.412l.395-.531c1.667.309,1.8,4.378,5.089,6.235,3.6,1.99,2.062,1.282,15.749,3.272-.439-5.439.351-23.57,19.127-23.614,18.82-.044,19.522,20.253,19.3,23.923,14.345,2.388,76.641,2.211,76.641,2.211-.877-16.848,6.537-26.532,20.136-26.4,13.951,0,19.829,12.6,20.268,22.951,3.334.133,12.415,2.565,12.415,2.565l-14.872.708a.649.649,0,0,1-.658-.663c.395-8.313-1.93-22.641-17.943-23.083-15.267-.442-17.636,15.433-16.934,24.5a.613.613,0,0,1-.614.663l-81.379-.575a.619.619,0,0,1-.614-.752c2.413-13.4-4.343-22.729-16.188-23.216C72.311,247.907,64.677,257.194,66.476,270.9Z" transform="translate(-43.181 -224.52)"/><path class="h" d="M229.947,243.5c-16.714-.973-76.6-1.68-81.159-1.194-1.316.265-1.1,1.592,7.94,1.99,9.081.4,64.357.265,64.357.265C228.718,243.761,229.947,243.5,229.947,243.5Z" transform="translate(-86.054 -222.761)"/><path class="d" d="M302.245,240.864c-1.141-1.5-3.992-1.548-10.573-1.194a3.687,3.687,0,0,0-1.272,1.194c1.228,1.769,2.15,1.946,5.923,1.946C300.1,242.853,301.148,242.5,302.245,240.864Z" transform="translate(-220.736 -221.278)"/><path d="M261.888,245.25a.4.4,0,0,0,.307-.133c1.974-1.946,1.755-5.218,1.623-7.119a8.979,8.979,0,0,1-.044-1.017,16.159,16.159,0,0,1,.351-2.388c.57-3.361,1.535-9.021.834-14.151,0-.044-.044-.133-.044-.177A13.46,13.46,0,0,0,256.4,213.9c-13.907-9.109-19.61-10.834-29.656-11.409-1.053-.044-2.15-.088-3.29-.088-9.783,0-22.374,2.078-36.412,5.97H187a1.118,1.118,0,0,0-.746.752c-.132.708.526,1.548,1.623,2.565,1.316,1.238,2.852,1.371,7.107,1.548,1.228.044,3.027.177,5.308.354,2.018.133,4.431.31,7.195.486a13.333,13.333,0,0,0-3.115,5.793V220c1.228,8.844,4.913,19.944,10.046,23.481,1.623,1.061,8.862,1.238,19.741,1.327,1.667,0,3.334.044,4.87.044,9.432.133,22.725.4,22.856.4Zm2.15-24.631c.658,4.908-.307,10.436-.834,13.753a17.6,17.6,0,0,0-.351,2.565c0,.31.044.663.044,1.105.132,1.857.351,4.6-1.184,6.279-1.711-.044-13.819-.265-22.681-.4-1.579-.044-3.2-.044-4.87-.044-7.9-.088-17.767-.177-19.259-1.194-4.87-3.317-8.423-14.151-9.607-22.774a12.867,12.867,0,0,1,3.51-5.881.406.406,0,0,0,.088-.486.44.44,0,0,0-.439-.265c-3.115-.177-5.879-.4-8.116-.531-2.281-.177-4.08-.31-5.308-.354-4.3-.177-5.484-.31-6.537-1.327-1.4-1.327-1.36-1.68-1.36-1.724h0a.541.541,0,0,1,.132-.089c13.951-3.892,26.454-5.926,36.149-5.926,1.141,0,2.237.044,3.246.088,9.344.531,14.609,1.68,29.305,11.321.044.044.132.044.175.088A12.039,12.039,0,0,1,264.037,220.619Z" transform="translate(-138 -200.592)"/><path class="i" d="M276.337,214.857c-14.3-9.375-19.785-10.834-29.525-11.365s-23.558,1.415-39.571,5.881c-1.009.354-.132,1.459,1.053,2.565s2.5,1.238,6.8,1.415,15.662,1.327,29.919,1.548C259.315,215.078,276.337,214.857,276.337,214.857Z" transform="translate(-158.153 -201.154)"/><path class="h" d="M213.363,224.194c1.755.84,3.378,2.521,2.9,3.007a4.679,4.679,0,0,1-4.124-.133c-1.1-.84-.79-1.946-3.246-2.7C206.432,223.575,210.248,222.735,213.363,224.194Z" transform="translate(-97.005 -212.302)"/><path class="d" d="M214.278,219c4.519,0,5.966.84,7.458,2.786a.634.634,0,0,1-.088.884c-1.228,1.15-3.071,1.15-6.1,1.15a2.716,2.716,0,0,1-2.369-2.167C212.875,220.5,213.269,219,214.278,219Z" transform="translate(-104.721 -209.851)"/><path class="a" d="M63.591,257.893c-2.544-2.255-10.967-4.068-14.082-5.97a27.733,27.733,0,0,1-3.992-2.963.335.335,0,0,1,.307-.575,28.074,28.074,0,0,0,5.089.752c3.422.221,6.537.663,8.072,1.769,1.184.84,2.808-.354,5,.884l-.219,5.926Z" transform="translate(125.006 -226.236)"/><path class="j" d="M53.354,248.96a.335.335,0,0,1,.307-.575,28.075,28.075,0,0,0,5.089.752c3.422.221,6.537.663,8.072,1.769h0a5.853,5.853,0,0,1,1.4,5.174c-3.553-1.5-8.6-2.83-10.88-4.2A25.018,25.018,0,0,1,53.354,248.96Z" transform="translate(117.167 -226.236)"/><path class="k" d="M55.252,256.015c.526,1.238,1.579,1.946,2.413,1.592s1.1-1.636.57-2.83c-.526-1.238-1.579-1.946-2.413-1.592C54.989,253.495,54.726,254.777,55.252,256.015Z" transform="translate(126.281 -228.869)"/><path class="k" d="M65.566,253.676c.439,1.061,1.4,1.68,2.106,1.371a1.842,1.842,0,0,0,.483-2.476c-.439-1.061-1.4-1.68-2.106-1.371S65.127,252.57,65.566,253.676Z" transform="translate(111.843 -227.768)"/><path class="d" d="M421.152,240.7a5.056,5.056,0,0,0,4.694-4.82,2.384,2.384,0,0,0-.79-1.9,2.757,2.757,0,0,0-1.886-.575,5.507,5.507,0,0,0-3.9,1.68,3.927,3.927,0,0,0-.965,2.609,3.186,3.186,0,0,0,1.053,2.388A2.863,2.863,0,0,0,421.152,240.7Zm2.018-6.721a2.4,2.4,0,0,1,1.491.442,1.906,1.906,0,0,1,.57,1.415,4.324,4.324,0,0,1-1.4,3.051,4.374,4.374,0,0,1-2.676,1.194,2.06,2.06,0,0,1-1.4-.531,2.482,2.482,0,0,1-.834-1.9,3.458,3.458,0,0,1,.834-2.211A4.809,4.809,0,0,1,423.17,233.975Z" transform="translate(-400.445 -217.884)"/><path class="h" d="M445.7,280.094c-2.9-.133-5.879-.309-7.063-.4a.49.49,0,0,0-.483.707c.395.8,1.93,1.017,3.9,1.15,2.193.133,3.729-.133,3.948-1.061C446.008,280.315,445.877,280.094,445.7,280.094Z" transform="translate(-429.295 -243.706)"/><path class="d" d="M328.354,243.571c.57,5.616,5.44,16.008,5.44,16.008-2.632.708-4.913.221-5.44-.221-.526-.4-4.782-15.7-6.1-16.273S328.354,243.571,328.354,243.571Z" transform="translate(-266.191 -223.191)"/></svg>