<svg xmlns="http://www.w3.org/2000/svg" width="16" height="16" viewBox="0 0 16 16"><defs><style>.a{fill:none;}.b{fill:#fff;}</style></defs><g transform="translate(-1557 -2944)"><rect class="a" width="16" height="16" transform="translate(1557 2944)"/><g transform="translate(1557 2945.077)"><path class="b" d="M6,19.254a6.2,6.2,0,0,0,.783.05,6.3,6.3,0,0,0,4.077-1.5,3.34,3.34,0,0,1-3.066-2.467,3.038,3.038,0,0,0,1.482-.05A3.516,3.516,0,0,1,6.642,11.8v-.045a3.121,3.121,0,0,0,1.487.458A3.66,3.66,0,0,1,6.67,9.253,3.7,3.7,0,0,1,7.115,7.48a9.236,9.236,0,0,0,6.766,3.775,3.726,3.726,0,0,1-.085-.8A3.334,3.334,0,0,1,17.078,7a3.254,3.254,0,0,1,2.4,1.141,6.247,6.247,0,0,0,2.084-.811,3.392,3.392,0,0,1-1.444,1.9A6.208,6.208,0,0,0,22,8.713a6.788,6.788,0,0,1-1.638,1.778c.007.15.009.3.009.45,0,4.6-3.3,9.907-9.341,9.9A8.782,8.782,0,0,1,6,19.254Z" transform="translate(-6 -6.999)"/></g></g></svg>