<svg xmlns="http://www.w3.org/2000/svg" width="75.294" height="50" viewBox="0 0 75.294 50"><defs><style>.a{fill:#fff;}</style></defs><g transform="translate(0 -86)"><g transform="translate(0 86)"><g transform="translate(0 0)"><path class="a" d="M64.265,86h-5.98a11.044,11.044,0,0,0-10.106,6.618H39.853V86H11.029A11.042,11.042,0,0,0,0,97.029v19.118a10.972,10.972,0,0,0,2.212,6.618H0V136H17.01a11.019,11.019,0,0,0,8.824-4.419A11.019,11.019,0,0,0,34.657,136h5.981a11.019,11.019,0,0,0,8.824-4.419A11.019,11.019,0,0,0,58.284,136h17.01V97.029A11.042,11.042,0,0,0,64.265,86ZM23.627,124.971a6.625,6.625,0,0,1-6.618,6.618H4.412v-4.412h14.8v-4.412H11.029a6.625,6.625,0,0,1-6.618-6.618V97.029a6.625,6.625,0,0,1,6.618-6.618h12.6Zm23.628-23.529H35.441v25.735h4.412V105.853h7.4v19.118a6.625,6.625,0,0,1-6.618,6.618H34.657a6.625,6.625,0,0,1-6.618-6.618V90.412h7.4v6.618H47.255v4.412Zm23.627,30.147h-12.6a6.625,6.625,0,0,1-6.618-6.618v-12.5a6.625,6.625,0,0,1,6.618-6.618h5.2V94.824H59.069v6.618h-7.4V97.029a6.625,6.625,0,0,1,6.618-6.618h5.98a6.625,6.625,0,0,1,6.618,6.618Z" transform="translate(0 -86)"/></g></g><g transform="translate(59.069 110.265)"><g transform="translate(0 0)"><rect class="a" width="4.412" height="16.912"/></g></g><g transform="translate(11.813 94.824)"><g transform="translate(0 0)"><rect class="a" width="4.412" height="23.529"/></g></g></g></svg>